<svg data-v-0dd9719b="" version="1.0" xmlns="http://www.w3.org/2000/svg" xmlns:xlink="http://www.w3.org/1999/xlink" width="100%" height="100%" viewBox="0 0 340.000000 250.000000" preserveAspectRatio="xMidYMid meet" color-interpolation-filters="sRGB" style="margin: auto;"> <rect data-v-0dd9719b="" x="0" y="0" width="100%" height="100%" fill="#fff" fill-opacity="1" class="background"></rect> <rect data-v-0dd9719b="" x="0" y="0" width="100%" height="100%" fill="url(#watermark)" fill-opacity="1" class="watermarklayer"></rect> <g data-v-0dd9719b="" fill="#333" class="icon-text-wrapper icon-svg-group iconsvg" transform="translate(66.03000640876175,94.52489280700684)"><g class="iconsvg-imagesvg" transform="translate(0,0)"><g><rect fill="#333" fill-opacity="0" stroke-width="2" x="0" y="0" width="60" height="60.950213833666865" class="image-rect"></rect> <svg x="0" y="0" width="60" height="60.950213833666865" filtersec="colorsb212284620" class="image-svg-svg primary" style="overflow: visible;"><svg xmlns="http://www.w3.org/2000/svg" viewBox="0.0015254020690917969 0 99.3042984008789 100.8768081665039"><title>资源 82</title><path d="M55.37 0a24.55 24.55 0 0 0-.57 13.76c.79 3.31 2.77 6.06 4.4 8.94Q78 56 96.94 89.21c.57 1 1.17 2 1.67 3.07 1.91 4-.27 8.25-4.61 8.46-5.49.25-11 .1-16.49 0-2.82-.08-4.68-1.78-6.05-4.22Q58.08 72.61 44.63 48.79c-1.92-3.4-4.06-6.67-5.15-10.51A19.86 19.86 0 0 1 41.3 22.8c4.07-7.36 8.55-14.49 12.87-21.71.24-.4.41-.94 1.2-1.09z" fill="#258bfa"></path><path d="M36.47 32.19a42 42 0 0 0-1.19 5 21.44 21.44 0 0 0 2.81 13.44q11.05 19.26 22 38.6c1.48 2.59 3.24 5.19 1.46 8.37s-4.95 2.84-7.94 2.82l-10-.08A6.13 6.13 0 0 1 38 96.93q-6.45-11.54-13-23c-4.59-8.14-4.36-16.13.55-24.1 3.32-5.38 6.4-10.9 9.59-16.36.29-.49.62-1 .93-1.42z" fill="#fc417f"></path><path d="M19.69 60.58C16.19 69 18 76.15 22.41 83c1.7 2.66 3.19 5.47 4.66 8.26 2.38 4.54-.16 8.74-5.28 8.76s-10.49 0-15.73-.07c-4.89-.13-7.57-4.28-5.16-8.5 5.78-10.11 11.83-20.07 17.78-30.08a7.48 7.48 0 0 1 1.01-.79z" fill="#fbc64d"></path></svg></svg> <!----></g></g> <g transform="translate(67,8.140108108520508)"><g data-gra="path-name" fill-rule="" class="tp-name iconsvg-namesvg"><g transform="scale(1)"><g><path d="M17.76 0L0.24-42.99 4.89-42.99Q5.67-42.99 6.15-42.6 6.63-42.21 6.87-41.61L6.87-41.61 19.02-11.28Q19.44-10.26 19.79-9.06 20.13-7.86 20.46-6.57L20.46-6.57Q20.73-7.86 21.04-9.06 21.36-10.26 21.78-11.28L21.78-11.28 33.87-41.61Q34.08-42.12 34.59-42.55 35.1-42.99 35.85-42.99L35.85-42.99 40.53-42.99 23.01 0 17.76 0ZM45.78-30.39L51.12-30.39 51.12 0 45.78 0 45.78-30.39ZM52.32-39.93L52.32-39.93Q52.32-39.15 52-38.48 51.69-37.8 51.16-37.27 50.64-36.75 49.95-36.45 49.26-36.15 48.48-36.15L48.48-36.15Q47.7-36.15 47.02-36.45 46.35-36.75 45.82-37.27 45.3-37.8 45-38.48 44.7-39.15 44.7-39.93L44.7-39.93Q44.7-40.71 45-41.41 45.3-42.12 45.82-42.64 46.35-43.17 47.02-43.47 47.7-43.77 48.48-43.77L48.48-43.77Q49.26-43.77 49.95-43.47 50.64-43.17 51.16-42.64 51.69-42.12 52-41.41 52.32-40.71 52.32-39.93ZM61.14-44.19L66.48-44.19 66.48 0 61.14 0 61.14-44.19ZM76.5-30.39L81.84-30.39 81.84 0 76.5 0 76.5-30.39ZM83.04-39.93L83.04-39.93Q83.04-39.15 82.72-38.48 82.41-37.8 81.88-37.27 81.36-36.75 80.67-36.45 79.98-36.15 79.2-36.15L79.2-36.15Q78.42-36.15 77.74-36.45 77.07-36.75 76.55-37.27 76.02-37.8 75.72-38.48 75.42-39.15 75.42-39.93L75.42-39.93Q75.42-40.71 75.72-41.41 76.02-42.12 76.55-42.64 77.07-43.17 77.74-43.47 78.42-43.77 79.2-43.77L79.2-43.77Q79.98-43.77 80.67-43.47 81.36-43.17 81.88-42.64 82.41-42.12 82.72-41.41 83.04-40.71 83.04-39.93ZM103.56-30.87L103.56-30.87Q106.89-30.87 109.57-29.76 112.26-28.65 114.13-26.61 116.01-24.57 117.01-21.68 118.02-18.78 118.02-15.21L118.02-15.21Q118.02-11.61 117.01-8.73 116.01-5.85 114.13-3.81 112.26-1.77 109.57-0.67 106.89 0.42 103.56 0.42L103.56 0.42Q100.23 0.42 97.54-0.67 94.86-1.77 92.97-3.81 91.08-5.85 90.06-8.73 89.04-11.61 89.04-15.21L89.04-15.21Q89.04-18.78 90.06-21.68 91.08-24.57 92.97-26.61 94.86-28.65 97.54-29.76 100.23-30.87 103.56-30.87ZM103.56-3.75L103.56-3.75Q108.06-3.75 110.28-6.76 112.5-9.78 112.5-15.18L112.5-15.18Q112.5-20.61 110.28-23.64 108.06-26.67 103.56-26.67L103.56-26.67Q101.28-26.67 99.6-25.89 97.92-25.11 96.79-23.64 95.67-22.17 95.11-20.02 94.56-17.88 94.56-15.18L94.56-15.18Q94.56-12.48 95.11-10.35 95.67-8.22 96.79-6.76 97.92-5.31 99.6-4.53 101.28-3.75 103.56-3.75ZM133.83 0.48L133.83 0.48Q130.23 0.48 128.29-1.53 126.36-3.54 126.36-7.32L126.36-7.32 126.36-25.92 122.7-25.92Q122.22-25.92 121.89-26.2 121.56-26.49 121.56-27.09L121.56-27.09 121.56-29.22 126.54-29.85 127.77-39.24Q127.83-39.69 128.16-39.98 128.49-40.26 129-40.26L129-40.26 131.7-40.26 131.7-29.79 140.4-29.79 140.4-25.92 131.7-25.92 131.7-7.68Q131.7-5.76 132.63-4.83 133.56-3.9 135.03-3.9L135.03-3.9Q135.87-3.9 136.48-4.13 137.1-4.35 137.55-4.62 138-4.89 138.31-5.12 138.63-5.34 138.87-5.34L138.87-5.34Q139.29-5.34 139.62-4.83L139.62-4.83 141.18-2.28Q139.8-0.99 137.85-0.26 135.9 0.48 133.83 0.48Z" transform="translate(-0.24000000953674316, 44.189998626708984)"></path></g> <!----> <!----> <!----> <!----> <!----> <!----> <!----></g></g> <!----></g></g></svg>